<svg width="640" height="640" viewBox="0 0 640 640" fill="none" xmlns="http://www.w3.org/2000/svg">
<path d="M320.053 52C249.592 52 192.522 109.11 192.522 179.619C192.522 250.129 249.592 307.238 320.053 307.238C390.514 307.238 447.584 250.129 447.584 179.619C447.584 109.11 390.514 52 320.053 52ZM383.818 384.66C378.08 384.129 372.128 383.81 366.177 383.81H273.823C267.872 383.81 262.027 384.129 256.182 384.66V456.446C273.717 464.529 285.939 482.289 285.939 502.814C285.939 530.997 263.089 553.862 234.926 553.862C206.763 553.862 183.914 530.997 183.914 502.814C183.914 482.183 196.136 464.422 213.671 456.446V394.338C146.824 418.905 99 483.352 99 558.86C99 574.919 112.072 588 128.119 588H511.88C527.928 588 541 574.919 541 558.86C541 483.352 493.176 419.011 426.222 394.444V434.219C450.985 442.94 468.733 466.656 468.733 494.413V528.444C468.733 540.143 459.168 549.714 447.478 549.714C435.787 549.714 426.222 540.143 426.222 528.444V494.413C426.222 482.714 416.658 473.143 404.967 473.143C393.277 473.143 383.712 482.714 383.712 494.413V528.444C383.712 540.143 374.147 549.714 362.457 549.714C350.767 549.714 341.202 540.143 341.202 528.444V494.413C341.202 466.656 358.95 443.046 383.712 434.219V384.66H383.818Z" fill="#216576"/>
</svg>
