<svg width="28" height="20" viewBox="0 0 28 20" fill="none" xmlns="http://www.w3.org/2000/svg">
<path d="M27.2802 9.71184C26.2347 7.13045 24.4197 4.89806 22.0594 3.29058C19.6992 1.6831 16.8972 0.770993 13.9998 0.666992C11.1024 0.770993 8.30046 1.6831 5.94023 3.29058C3.58 4.89806 1.76497 7.13045 0.719461 9.71184C0.648852 9.89826 0.648852 10.1024 0.719461 10.2888C1.76497 12.8702 3.58 15.1026 5.94023 16.7101C8.30046 18.3176 11.1024 19.2297 13.9998 19.3337C16.8972 19.2297 19.6992 18.3176 22.0594 16.7101C24.4197 15.1026 26.2347 12.8702 27.2802 10.2888C27.3508 10.1024 27.3508 9.89826 27.2802 9.71184ZM13.9998 17.6367C9.28859 17.6367 4.31067 14.3021 2.50618 10.0003C4.31067 5.69851 9.28859 2.36396 13.9998 2.36396C18.7111 2.36396 23.689 5.69851 25.4935 10.0003C23.689 14.3021 18.7111 17.6367 13.9998 17.6367Z" fill="black"/>
<path d="M14 5C13.0111 5 12.0444 5.29325 11.2222 5.84265C10.3999 6.39206 9.75904 7.17295 9.3806 8.08658C9.00217 9.00021 8.90315 10.0055 9.09608 10.9755C9.289 11.9454 9.76521 12.8363 10.4645 13.5355C11.1637 14.2348 12.0546 14.711 13.0245 14.9039C13.9945 15.0969 14.9998 14.9978 15.9134 14.6194C16.827 14.241 17.6079 13.6001 18.1573 12.7778C18.7068 11.9556 19 10.9889 19 10C19 8.67392 18.4732 7.40215 17.5355 6.46447C16.5979 5.52678 15.3261 5 14 5ZM14 13.3333C13.3407 13.3333 12.6963 13.1378 12.1481 12.7716C11.5999 12.4053 11.1727 11.8847 10.9204 11.2756C10.6681 10.6665 10.6021 9.9963 10.7307 9.3497C10.8593 8.70309 11.1768 8.10915 11.643 7.64298C12.1092 7.1768 12.7031 6.85933 13.3497 6.73072C13.9963 6.6021 14.6665 6.66811 15.2756 6.9204C15.8847 7.17269 16.4053 7.59994 16.7716 8.1481C17.1378 8.69626 17.3333 9.34073 17.3333 10C17.3333 10.8841 16.9821 11.7319 16.357 12.357C15.7319 12.9821 14.8841 13.3333 14 13.3333Z" fill="black"/>
</svg>
