<svg width="640" height="640" viewBox="0 0 640 640" fill="none" xmlns="http://www.w3.org/2000/svg">
<path d="M165 134C165 99.8031 192.803 72 227 72H413C447.197 72 475 99.8031 475 134V196H537C571.197 196 599 223.803 599 258V506C599 540.197 571.197 568 537 568H103C68.8031 568 41 540.197 41 506V258C41 223.803 68.8031 196 103 196H165V134ZM304.5 413C287.353 413 273.5 426.853 273.5 444V521.5H366.5V444C366.5 426.853 352.647 413 335.5 413H304.5ZM165 428.5V397.5C165 388.975 158.025 382 149.5 382H118.5C109.975 382 103 388.975 103 397.5V428.5C103 437.025 109.975 444 118.5 444H149.5C158.025 444 165 437.025 165 428.5ZM149.5 320C158.025 320 165 313.025 165 304.5V273.5C165 264.975 158.025 258 149.5 258H118.5C109.975 258 103 264.975 103 273.5V304.5C103 313.025 109.975 320 118.5 320H149.5ZM537 428.5V397.5C537 388.975 530.025 382 521.5 382H490.5C481.975 382 475 388.975 475 397.5V428.5C475 437.025 481.975 444 490.5 444H521.5C530.025 444 537 437.025 537 428.5ZM521.5 320C530.025 320 537 313.025 537 304.5V273.5C537 264.975 530.025 258 521.5 258H490.5C481.975 258 475 264.975 475 273.5V304.5C475 313.025 481.975 320 490.5 320H521.5ZM296.75 172.75V203.75H265.75C257.225 203.75 250.25 210.725 250.25 219.25V234.75C250.25 243.275 257.225 250.25 265.75 250.25H296.75V281.25C296.75 289.775 303.725 296.75 312.25 296.75H327.75C336.275 296.75 343.25 289.775 343.25 281.25V250.25H374.25C382.775 250.25 389.75 243.275 389.75 234.75V219.25C389.75 210.725 382.775 203.75 374.25 203.75H343.25V172.75C343.25 164.225 336.275 157.25 327.75 157.25H312.25C303.725 157.25 296.75 164.225 296.75 172.75Z" fill="#216576"/>
</svg>
